<?xml version="1.0" encoding="UTF-8"?>
<!-- Generated by Pixelmator Pro 4.2 -->
<svg width="499" height="502" viewBox="0 0 499 502" xmlns="http://www.w3.org/2000/svg">
    <linearGradient id="linearGradient1" x1="-26.734375" y1="-259.148437" x2="417.851562" y2="733.054688" gradientUnits="userSpaceOnUse">
        <stop offset="0" stop-color="#f88500" stop-opacity="1"/>
        <stop offset="0.49784" stop-color="#f02d4c" stop-opacity="1"/>
        <stop offset="1" stop-color="#9f29ad" stop-opacity="1"/>
    </linearGradient>
    <filter id="filter1" x="0" y="0" width="499" height="502" filterUnits="userSpaceOnUse" primitiveUnits="userSpaceOnUse" color-interpolation-filters="sRGB">
        <feGaussianBlur stdDeviation="15"/>
        <feOffset dx="-0" dy="10" result="offsetblur"/>
        <feFlood flood-color="#000000" flood-opacity="0.4"/>
        <feComposite in2="offsetblur" operator="in"/>
        <feMerge>
            <feMergeNode/>
            <feMergeNode in="SourceGraphic"/>
        </feMerge>
    </filter>
    <path id="path1" fill="url(#linearGradient1)" stroke="none" filter="url(#filter1)" d="M 149.481598 326.572388 C 151.59433 324.8125 153.002808 323.580658 153.707123 322.876648 L 162.421844 317.333557 L 181.964081 304.399597 L 206.523712 289.090271 C 212.157562 285.394867 217.086761 283.547607 221.311493 283.548553 C 225.008148 283.549347 226.856171 284.869965 226.855621 287.510437 C 226.855225 289.270782 222.4534 294.374603 213.649963 302.822235 L 195.955139 319.981354 L 171.92215 341.891937 C 155.899963 357.027161 143.838959 370.930786 135.738739 383.603302 C 126.581909 398.211945 120.507324 405.515808 117.514801 405.515167 C 113.114014 405.514221 108.450287 400.71637 103.523499 391.121613 C 98.59671 381.526794 96.134277 372.504822 96.136108 364.055267 C 96.137085 359.65448 98.338409 355.166229 102.740204 350.590363 C 120.347473 331.75882 129.155273 302.716003 129.163818 263.460938 L 131.553711 201.674683 L 133.141632 185.0401 C 133.494812 179.935303 134.023651 176.414856 134.72818 174.478638 C 135.080475 173.598511 135.256653 172.982544 135.256683 172.630432 C 135.43338 169.637878 134.025482 168.141357 131.032959 168.140686 C 127.688324 168.139954 120.030334 171.482849 108.058746 178.169495 L 91.42218 185.823181 L 75.577698 193.741089 C 71.880707 195.324585 67.743805 196.115784 63.167023 196.114807 C 56.829865 196.113403 48.90918 193.427246 39.404602 188.056213 C 29.900116 182.68512 24.97229 178.063354 24.621063 174.190552 C 24.269714 170.845886 26.030365 169.262085 29.903015 169.438904 L 51.026489 170.499695 C 51.730621 170.499817 53.843018 170.236267 57.36377 169.708923 C 77.960144 166.544861 103.575073 154.052368 134.209351 132.23114 C 139.843231 128.183655 144.156372 126.160278 147.148895 126.16095 C 155.070313 126.162659 163.607178 128.848938 172.759613 134.21991 C 181.912079 139.590881 186.487732 144.65271 186.486694 149.405579 C 186.486176 151.869995 183.492737 156.094055 177.506378 162.07782 C 163.772919 175.805298 156.902466 200.095825 156.894867 234.950012 C 156.891205 251.673004 155.037476 276.492706 151.333679 309.40979 Z M 116.807404 17.103271 C 125.609436 15.168762 132.474762 14.202209 137.403656 14.203247 C 156.415039 14.207397 172.300659 18.919617 185.060883 28.340088 C 197.821075 37.760681 204.199585 49.511963 204.196533 63.594482 C 204.194244 73.980286 200.49649 79.172363 193.10318 79.170776 C 184.653625 79.168884 171.717041 72.080933 154.29306 57.906555 C 136.868988 43.732178 124.373901 30.131226 116.807404 17.103271 Z M 350.957275 287.273468 L 359.141418 293.348328 C 364.773499 297.57428 367.589233 300.655426 367.588867 302.591766 C 367.587524 308.752899 359.401489 311.831604 343.030579 311.828033 C 342.678467 311.827942 337.045471 312.178741 326.131348 312.880524 L 275.433838 316.302063 C 274.729614 316.30188 271.385071 316.653229 265.399841 317.356049 L 265.399414 319.204376 C 265.395935 335.047211 262.665771 342.967926 257.208801 342.966736 C 250.871643 342.965332 245.77005 328.177795 241.903809 298.603668 C 237.861664 268.325317 230.825348 246.232208 220.794586 232.323486 C 217.626953 228.098083 216.043488 224.313049 216.04425 220.968506 C 216.044922 217.799927 218.245636 216.216125 222.646423 216.217102 C 226.519135 216.217896 231.183777 216.74707 236.640503 217.804443 C 244.033539 219.214355 251.25061 219.919983 258.29187 219.921509 C 274.486755 219.925049 292.442383 216.848511 312.159241 210.69165 L 335.396912 203.303467 C 340.678223 201.544312 345.079102 200.6651 348.599792 200.665894 C 354.93689 200.667236 362.461548 203.705444 371.173706 209.780396 C 379.885925 215.855347 384.241516 221.181213 384.24054 225.758057 C 384.239929 228.398499 382.831116 231.126648 380.013977 233.942505 L 373.147278 240.806213 C 366.28064 247.669922 358.883972 263.158905 350.957275 287.273468 Z M 258.551941 237.876709 C 262.420105 258.825317 264.351624 280.65329 264.34668 303.361389 C 274.732971 301.251282 285.471191 299.053284 296.561768 296.767273 L 312.405151 293.866211 L 325.87207 291.228699 C 327.105774 284.539734 328.162964 279.523193 329.043884 276.178741 L 332.47998 260.336761 C 333.889587 254.175934 334.595093 247.663055 334.596558 240.797852 C 334.598267 233.052368 330.902466 229.178955 323.509155 229.177368 C 319.108398 229.176392 314.267456 229.70343 308.986328 230.758423 L 285.485229 235.242126 C 279.499878 236.473022 270.522217 237.351257 258.551941 237.876709 Z M 349.934875 132.542236 C 365.77771 132.545715 373.697754 138.356445 373.69519 149.974548 C 373.693787 156.487671 362.779053 160.621948 340.950806 162.377502 L 310.320862 165.011292 C 305.21582 165.538269 295.357971 166.592285 280.74707 168.173401 C 277.050293 168.524719 274.233765 168.700012 272.297424 168.699646 C 265.784302 168.698242 258.831604 166.672363 251.439148 162.622009 C 244.046692 158.571655 240.350922 154.698242 240.351715 151.001587 C 240.352386 148.008972 243.785278 146.51355 250.650513 146.515015 C 261.740479 146.517456 273.006592 145.463745 284.449097 143.353882 L 330.39502 134.650391 C 337.788635 133.243713 344.301819 132.541016 349.934875 132.542236 Z M 426.464233 334.026123 L 426.509705 125.957825 L 424.930237 103.777649 L 423.877014 90.311096 C 423.17511 80.2771 417.367188 75.258972 406.453247 75.256592 C 402.580505 75.255798 387.969788 76.836853 362.620544 79.999878 L 303.736572 87.644348 C 297.575378 88.347107 292.734558 88.69812 289.213867 88.697388 C 283.404846 88.696106 276.980225 86.538391 269.939941 82.22406 C 262.899597 77.909668 259.379883 73.992371 259.380676 70.47168 C 259.381287 67.303101 263.254272 65.719666 270.999695 65.721375 L 279.18512 65.723206 C 282.001648 65.723816 285.522217 65.548584 289.74707 65.197388 C 337.980469 61.687317 371.075012 56.501587 389.031799 49.640381 L 409.893188 41.459473 C 414.998596 39.348206 419.047485 38.292908 422.039978 38.293579 C 429.961426 38.295288 440.698181 43.006348 454.250549 52.427063 C 467.802917 61.847717 474.578369 69.286438 474.577209 74.743408 C 474.576843 76.327698 473.872375 78.263794 472.463562 80.551941 L 466.388184 91.112488 C 461.281311 100.265015 458.724609 119.803589 458.718079 149.729004 L 461.578918 350.140564 C 461.571838 382.35437 457.517151 409.990021 449.414612 433.04837 C 441.312134 456.10675 431.716064 467.634552 420.626099 467.632141 C 416.577393 467.631256 410.593323 462.965179 402.674011 453.633789 C 397.04248 446.767303 391.674988 440.693146 386.571167 435.411072 L 362.02063 409.265167 L 350.933228 397.380676 C 348.293335 394.739624 346.973572 392.891022 346.973816 391.834839 C 346.974487 388.490234 349.615356 386.818542 354.89624 386.819702 C 358.064758 386.820374 361.937256 387.701355 366.513672 389.462677 C 368.097839 389.99115 374.434631 391.400726 385.524109 393.691559 L 404.270508 397.656372 C 405.502686 398.008698 406.470825 398.184937 407.174866 398.185089 C 420.025208 398.187897 426.454895 376.801758 426.464233 334.026123 Z"/>
</svg>
